<!-- sub-titles-auto-correct -->
<!-- Copyright (C) 2014-2022 -->
<!-- - -->
<!-- This program is free software: you can redistribute it and/or modify -->
<!-- it under the terms of the GNU General Public License as published by -->
<!-- the Free Software Foundation, either version 3 of the License, or -->
<!-- (at your option) any later version. -->
<!-- - -->
<!-- This program is distributed in the hope that it will be useful, -->
<!-- but WITHOUT ANY WARRANTY; without even the implied warranty of -->
<!-- MERCHANTABILITY or FITNESS FOR A PARTICULAR PURPOSE.  See the -->
<!-- GNU General Public License for more details. -->
<!-- - -->
<!-- You should have received a copy of the GNU General Public License -->
<!-- along with this program.  If not, see <http://www.gnu.org/licenses/>. -->

<svg fill="#FFFFFF" height="48" viewBox="0 0 24 24" width="48" xmlns="http://www.w3.org/2000/svg">
    <path d="M0 0h24v24H0z" fill="none"/>
    <path d="M20 4H4c-1.1 0-2 .9-2 2v12c0 1.1.9 2 2 2h16c1.1 0 2-.9 2-2V6c0-1.1-.9-2-2-2zM4 12h4v2H4v-2zm10 6H4v-2h10v2zm6 0h-4v-2h4v2zm0-4H10v-2h10v2z"/>
</svg>